<svg xmlns="http://www.w3.org/2000/svg" viewBox="0 0 1200 750" role="img" aria-label="Abstract 21day cover">

  <defs>
    <linearGradient id="bg-21day" x1="0" y1="0" x2="1" y2="1">
      <stop offset="0%" stop-color="#172617"/>
      <stop offset="100%" stop-color="#384515"/>
    </linearGradient>
    <radialGradient id="burst-21day" cx="28%" cy="24%" r="72%">
      <stop offset="0%" stop-color="#ffbe4a" stop-opacity="0.42"/>
      <stop offset="54%" stop-color="#37d67a" stop-opacity="0.18"/>
      <stop offset="100%" stop-color="#000000" stop-opacity="0"/>
    </radialGradient>
    <filter id="soft-21day" x="-30%" y="-30%" width="160%" height="160%">
      <feDropShadow dx="0" dy="24" stdDeviation="28" flood-color="#020617" flood-opacity="0.28"/>
    </filter>
  </defs>
  <rect width="1200" height="750" rx="0" fill="url(#bg-21day)"/>
  <rect width="1200" height="750" fill="url(#burst-21day)"/>
  <circle cx="1040" cy="104" r="210" fill="#ffbe4a" opacity="0.10"/>
  <circle cx="90" cy="680" r="230" fill="#f97316" opacity="0.12"/>
  <path d="M-80 540 C170 420 280 680 520 555 S865 285 1280 360" fill="none" stroke="#ffffff" stroke-opacity="0.10" stroke-width="58" stroke-linecap="round"/>

<text x="78" y="132" font-family="Arial, Helvetica, sans-serif" font-size="58" font-weight="900" fill="#ffffff" opacity="0.94" letter-spacing="0">21</text>

  <g filter="url(#soft-21day)">
    <circle cx="610" cy="392" r="220" fill="#ffbe4a"/>
    <circle cx="610" cy="392" r="164" fill="#18221a"/>
    <path d="M610 392 L610 282" stroke="#fff" stroke-width="28" stroke-linecap="round"/>
    <path d="M610 392 L724 446" stroke="#37d67a" stroke-width="28" stroke-linecap="round"/>
    <path d="M410 164 L326 92 M808 164 L894 90" stroke="#ffbe4a" stroke-width="38" stroke-linecap="round"/>
    <text x="610" y="458" text-anchor="middle" font-family="Arial Black, Arial, sans-serif" font-size="154" font-weight="900" fill="#fff">21</text>
  </g>

</svg>
