<svg xmlns="http://www.w3.org/2000/svg" viewBox="0 0 320 180" width="100%" height="100%">
  <defs>
    <radialGradient id="win10" cx="70%" cy="40%" r="65%">
      <stop offset="0%" stop-color="#0063b1" stop-opacity="0.8"/>
      <stop offset="50%" stop-color="#1e1e1e" stop-opacity="0.95"/>
      <stop offset="100%" stop-color="#111111" stop-opacity="1"/>
    </radialGradient>
  </defs>
  <!-- Windows 10 Acrylic Background -->
  <rect width="320" height="180" fill="url(#win10)"/>
  <!-- Folder Container Panel -->
  <rect x="50" y="15" width="220" height="150" rx="8" fill="rgba(0,0,0,0.4)" stroke="rgba(255,255,255,0.12)" stroke-width="1.2"/>
  <rect x="115" y="28" width="42" height="42" rx="3" fill="#06b6d4"/>
  <rect x="163" y="28" width="42" height="42" rx="3" fill="#0284c7"/>
  <rect x="115" y="76" width="42" height="42" rx="3" fill="#0f766e"/>
  <rect x="163" y="76" width="42" height="42" rx="3" fill="#3b82f6"/>
  
  <!-- Icon 1: Membrane filter -->
  <rect x="126" y="37" width="20" height="20" rx="3" stroke="#ffffff" stroke-width="2.5" fill="none"/>
  <line x1="126" y1="47" x2="146" y2="47" stroke="#ffffff" stroke-width="2" stroke-dasharray="2 2"/>
  <!-- Icon 2: Wave -->
  <path d="M171,43 Q177,38 184,43 T197,43" stroke="#ffffff" stroke-width="2.5" stroke-linecap="round" fill="none"/>
  <path d="M171,51 Q177,46 184,51 T197,51" stroke="#ffffff" stroke-width="2.5" stroke-linecap="round" fill="none"/>
  <!-- Icon 3: Waterfall -->
  <path d="M125,99 L136,82 L144,93 L148,89 L154,99 Z" fill="#ffffff" opacity="0.6"/>
  <line x1="136" y1="84" x2="136" y2="99" stroke="#ffffff" stroke-width="2"/>
  <!-- Icon 4: Guide book -->
  <rect x="174" y="83" width="18" height="24" rx="2" fill="#ffffff"/>
  <line x1="178" y1="88" x2="188" y2="88" stroke="#3b82f6" stroke-width="1.8"/>

  <text x="160" y="146" font-family="'Segoe UI', sans-serif" font-weight="600" font-size="11" fill="#ffffff" text-anchor="middle" letter-spacing="0.5">Reverse Osmosis</text>
</svg>
