<svg xmlns="http://www.w3.org/2000/svg" viewBox="0 0 1200 750" role="img" aria-labelledby="title desc">
<title id="title">West Virginia Marathon icon cover</title>
<desc id="desc">Icon style cover with West Virginia title, Run50 badge, Appalachian mountains, winding country road, and football.</desc>
<rect width="1200" height="750" fill="#fffbeb"/>
<g transform="translate(70 104)">
  <text x="0" y="0" font-family="Arial, Helvetica, sans-serif" font-size="66" font-weight="900" fill="#20242b">W. VIRGINIA</text>
  <text x="0" y="46" font-family="Arial, Helvetica, sans-serif" font-size="24" font-weight="700" fill="#0b67c2">MOUNTAINS · COUNTRY ROADS · FOOTBALL</text>
</g>
<rect x="758" y="62" width="364" height="166" rx="22" fill="#ffffff" stroke="#20242b" stroke-width="8"/>
<text x="790" y="122" font-family="Arial, Helvetica, sans-serif" font-size="41" font-weight="900" fill="#20242b">Run50 #13</text>
<text x="790" y="182" font-family="Arial, Helvetica, sans-serif" font-size="52" font-weight="900" fill="#0b67c2">W. VIRGINIA</text>

<!-- Sun -->
<circle cx="250" cy="350" r="50" fill="#f97316"/>

<!-- Layered Appalachian Mountains -->
<path d="M0 520 Q200 420 450 490 T900 460 T1200 480 L1200 750 L0 750 Z" fill="#a7f3d0"/>
<path d="M0 560 Q300 470 650 540 T1200 510 L1200 750 L0 750 Z" fill="#34d399"/>
<path d="M0 600 Q450 520 850 580 T1200 550 L1200 750 L0 750 Z" fill="#10b981"/>
<path d="M0 650 Q600 600 1200 620 L1200 750 L0 750 Z" fill="#047857"/>

<!-- Winding Country Road -->
<path d="M450 750 C540 680 575 630 590 580 L610 580 C625 630 650 680 750 750 Z" fill="#374151" stroke="#20242b" stroke-width="4"/>
<path d="M600 750 C580 700 570 630 600 580" fill="none" stroke="#fbbf24" stroke-dasharray="15 10" stroke-width="4"/>

<g transform="translate(860, 540) rotate(15)">
  <ellipse cx="50" cy="50" rx="90" ry="60" fill="#78350f" stroke="#20242b" stroke-width="7"/>
  <!-- Laces -->
  <line x1="-15" y1="50" x2="115" y2="50" stroke="#ffffff" stroke-width="8"/>
  <line x1="10" y1="35" x2="10" y2="65" stroke="#ffffff" stroke-width="6"/>
  <line x1="30" y1="35" x2="30" y2="65" stroke="#ffffff" stroke-width="6"/>
  <line x1="50" y1="35" x2="50" y2="65" stroke="#ffffff" stroke-width="6"/>
  <line x1="70" y1="35" x2="70" y2="65" stroke="#ffffff" stroke-width="6"/>
  <line x1="90" y1="35" x2="90" y2="65" stroke="#ffffff" stroke-width="6"/>
  <!-- End stripes -->
  <path d="M-10 20 Q-25 50 -10 80" fill="none" stroke="#ffffff" stroke-width="8"/>
  <path d="M110 20 Q125 50 110 80" fill="none" stroke="#ffffff" stroke-width="8"/>
</g>
</svg>
