<svg xmlns="http://www.w3.org/2000/svg" viewBox="0 0 1200 750" role="img" aria-labelledby="title desc">
  <title id="title">WQA 2026 PRESENTATIONS</title>
  <desc id="desc">Modern enamel plaque cover for WQA 2026 presentation notes.</desc>
  <defs>
    <linearGradient id="metal" x1="0" y1="0" x2="1" y2="1">
      <stop offset="0%" stop-color="#fff6d4"/>
      <stop offset="18%" stop-color="#9c7a3d"/>
      <stop offset="36%" stop-color="#f9f2df"/>
      <stop offset="58%" stop-color="#706041"/>
      <stop offset="80%" stop-color="#f6f7f4"/>
      <stop offset="100%" stop-color="#886b36"/>
    </linearGradient>
    <linearGradient id="bg" x1="0" y1="0" x2="1" y2="1">
      <stop offset="0%" stop-color="#083436"/>
      <stop offset="56%" stop-color="#087f69"/>
      <stop offset="100%" stop-color="#17301f"/>
    </linearGradient>
    <linearGradient id="titleGrad" x1="0" y1="0" x2="1" y2="1">
      <stop offset="0%" stop-color="#0e7c66"/>
      <stop offset="100%" stop-color="#214f39"/>
    </linearGradient>
    <linearGradient id="glass" x1="0" y1="0" x2="0" y2="1">
      <stop offset="0%" stop-color="#ffffff"/>
      <stop offset="48%" stop-color="#8ef8e4"/>
      <stop offset="100%" stop-color="#18a58e"/>
    </linearGradient>
    <linearGradient id="tube" x1="0" y1="0" x2="1" y2="1">
      <stop offset="0%" stop-color="#f6ffff"/>
      <stop offset="45%" stop-color="#8ef8e4"/>
      <stop offset="100%" stop-color="#18a58e"/>
    </linearGradient>
    <radialGradient id="wafer" cx="42%" cy="32%" r="68%">
      <stop offset="0%" stop-color="#ffffff"/>
      <stop offset="28%" stop-color="#8ef8e4"/>
      <stop offset="58%" stop-color="#0f6f7e"/>
      <stop offset="100%" stop-color="#18a58e"/>
    </radialGradient>
    <filter id="shadow" x="-10%" y="-10%" width="120%" height="120%">
      <feDropShadow dx="0" dy="18" stdDeviation="18" flood-color="#000000" flood-opacity=".34"/>
    </filter>
    <filter id="softShadow" x="-20%" y="-20%" width="140%" height="140%">
      <feDropShadow dx="0" dy="12" stdDeviation="10" flood-color="#000000" flood-opacity=".24"/>
    </filter>
    <pattern id="pinstripe" width="44" height="44" patternUnits="userSpaceOnUse" patternTransform="rotate(24)">
      <path d="M0 0 H44" stroke="#ffffff" stroke-width="3" opacity=".08"/>
    </pattern>
  </defs>
  <style>
    text { font-family: Inter, "Segoe UI", Arial, sans-serif; }
  </style>
  <rect width="1200" height="750" fill="#090f12"/>
  <rect x="26" y="24" width="1148" height="702" rx="48" fill="url(#metal)" filter="url(#shadow)"/>
  <rect x="42" y="40" width="1116" height="670" rx="40" fill="#111817"/>
  <rect x="61" y="59" width="1078" height="632" rx="32" fill="url(#bg)"/>
  <rect x="61" y="59" width="1078" height="632" rx="32" fill="url(#pinstripe)"/>
  <path d="M92 102 C248 52 394 88 548 126 C734 172 872 128 1100 80 L1100 260 C912 302 754 276 586 234 C382 184 224 202 92 260 Z" fill="#ffffff" opacity=".08"/>
  <path d="M82 468 C214 418 354 484 496 444 C664 396 836 432 1114 348 L1114 672 H82 Z" fill="#000000" opacity=".14"/>

  <g transform="translate(90 86)" filter="url(#softShadow)">
    <path d="M0 0 H246 L276 36 V144 L246 180 H0 Z" fill="#0e554d" stroke="url(#metal)" stroke-width="9"/>
    <text x="132" y="116" text-anchor="middle" font-size="76" font-weight="950" fill="#fff8df" stroke="#0b1114" stroke-width="4" paint-order="stroke">WQA</text>
  </g>

  <g transform="translate(928 92)" opacity=".96">
    <path d="M34 0 H150 L184 34 V116 L150 150 H34 L0 116 V34 Z" fill="#174338" stroke="url(#metal)" stroke-width="7"/>
    <circle cx="92" cy="56" r="28" fill="#f0b84f" opacity=".9" stroke="#fff" stroke-width="5"/>
    <path d="M76 56 h32 M92 40 v32" stroke="#0c1214" stroke-width="7" stroke-linecap="round" opacity=".54"/>
    <text x="92" y="120" text-anchor="middle" font-size="21" font-weight="900" fill="#fff8df">NOTES</text>
  </g>


    <g transform="translate(420 130)" filter="url(#softShadow)">
      <path d="M188 20 C188 20 334 200 334 318 C334 430 264 502 188 502 C112 502 42 430 42 318 C42 200 188 20 188 20 Z" fill="url(#glass)" stroke="#eefcff" stroke-width="10"/>
      <path d="M151 303 C151 252 188 184 188 184 C188 184 225 252 225 303 C225 354 210 385 188 385 C166 385 151 354 151 303 Z" fill="#f8ffff" opacity=".58"/>
      <rect x="-154" y="248" width="188" height="54" rx="27" fill="#d9fbff" opacity=".92" stroke="#ffffff" stroke-width="6"/>
      <rect x="342" y="248" width="182" height="54" rx="27" fill="#d9fbff" opacity=".92" stroke="#ffffff" stroke-width="6"/>
      <path d="M-92 276 C42 246 97 342 188 300 C282 256 354 267 470 276" fill="none" stroke="#f0b84f" stroke-width="12" stroke-linecap="round" opacity=".9"/>
      <g opacity=".92">
        <path d="M-74 348 h78 v92 h-78 z" fill="#e9ffff" opacity=".72" stroke="#fff" stroke-width="6"/>
        <path d="M-58 348 v-42 h46 v42" fill="none" stroke="#fff" stroke-width="8"/>
        <circle cx="-35" cy="394" r="18" fill="#8ef8e4"/>
        <rect x="420" y="344" width="72" height="112" rx="18" fill="#dffcff" opacity=".74" stroke="#fff" stroke-width="6"/>
        <circle cx="456" cy="382" r="15" fill="#8ef8e4"/>
        <circle cx="456" cy="420" r="20" fill="#f0b84f" opacity=".72"/>
      </g>
    </g>


  <g filter="url(#softShadow)">
    <path d="M104 524 L252 496 H948 L1096 524 L1052 696 H148 Z" fill="url(#titleGrad)" stroke="url(#metal)" stroke-width="10" stroke-linejoin="round"/>
    <path d="M168 538 C308 510 418 548 560 528 C720 506 832 524 1032 508" fill="none" stroke="#ffffff" stroke-width="5" opacity=".22"/>
    <text x="600" y="566" text-anchor="middle" font-size="66" font-weight="900" fill="#fff" letter-spacing="1">WQA 2026</text>
<text x="600" y="634" text-anchor="middle" font-size="66" font-weight="900" fill="#fff" letter-spacing="1">PRESENTATIONS</text>
    <text x="600" y="646" text-anchor="middle" font-size="23" font-weight="850" fill="#e6fff7" letter-spacing="3">FIELD NOTES • TECH TALKS</text>

    <g opacity=".75">
      <path d="M178 650 C250 624 318 674 392 646 C472 616 524 662 602 636 C678 610 724 662 804 638 C882 614 934 654 1020 626" fill="none" stroke="#8ef8e4" stroke-width="8" stroke-linecap="round"/>
      <circle cx="338" cy="646" r="10" fill="#f0b84f" stroke="#fff" stroke-width="4"/>
      <circle cx="862" cy="638" r="10" fill="#f0b84f" stroke="#fff" stroke-width="4"/>
    </g>

  </g>
  <rect x="61" y="59" width="1078" height="632" rx="32" fill="none" stroke="#ffffff" stroke-width="3" opacity=".24"/>
  <rect x="34" y="32" width="1132" height="686" rx="44" fill="none" stroke="#ffffff" stroke-width="4" opacity=".58"/>
</svg>
