<svg xmlns="http://www.w3.org/2000/svg" viewBox="0 0 1200 750" role="img" aria-labelledby="title desc">
<title id="title">Pisa icon cover</title>
<desc id="desc">Icon style cover with Pisa title, fixed RunWorld badge, Leaning Tower, Galileo looking through a telescope, Tuscan hills and medal.</desc>
<rect width="1200" height="750" fill="#eef5ec"/>
<text x="70" y="104" font-family="Arial, Helvetica, sans-serif" font-size="66" font-weight="900" fill="#20242b">PISA</text>
<rect x="758" y="62" width="364" height="166" rx="22" fill="#ffffff" stroke="#20242b" stroke-width="8"/>
<text x="790" y="122" font-family="Arial, Helvetica, sans-serif" font-size="41" font-weight="900" fill="#20242b">RunWorld #6</text>
<text x="790" y="182" font-family="Arial, Helvetica, sans-serif" font-size="52" font-weight="900" fill="#2f855a">PISA</text>
<circle cx="1036" cy="358" r="58" fill="#f2b441"/>
<circle cx="908" cy="330" r="8" fill="#d9a441" stroke="#8b5e20" stroke-width="2"/>
<circle cx="872" cy="292" r="7" fill="#f2b441"/>
<path d="M872 258 L872 326 M838 292 L906 292" stroke="#f2b441" stroke-width="4" stroke-linecap="round"/>
<rect x="0" y="610" width="1200" height="140" fill="#d6c987"/>
<path d="M0 610 L160 535 L350 622 L540 558 L720 502 L900 610 L1080 550 L1200 525 L1200 750 L0 750 Z" fill="#8ab48a"/>
<path d="M0 682 L180 632 L360 700 L560 646 L760 704 L980 638 L1200 612 L1200 750 L0 750 Z" fill="#eef5ec"/>
<path d="M0 694 L190 650 L400 704 L640 660 L850 710 L1050 666 L1200 648 L1200 750 L0 750 Z" fill="#2f855a"/>
<rect x="0" y="708" width="1200" height="42" fill="#3f8fa0"/>
<path d="M270 270 L428 248 L504 670 L318 696 Z" fill="#f7f2df" stroke="#20242b" stroke-width="7"/>
<path d="M284 322 L444 300 M296 386 L456 364 M308 450 L470 428 M320 514 L482 492 M334 580 L494 558" stroke="#b24a33" stroke-width="8"/>
<path d="M306 286 L366 684 M350 280 L414 678 M394 274 L466 672" stroke="#20242b" stroke-width="5"/>
<g fill="#20242b">
  <rect x="315" y="344" width="20" height="34" rx="8"/><rect x="365" y="336" width="20" height="34" rx="8"/><rect x="414" y="328" width="20" height="34" rx="8"/>
  <rect x="328" y="410" width="20" height="34" rx="8"/><rect x="380" y="402" width="20" height="34" rx="8"/><rect x="430" y="394" width="20" height="34" rx="8"/>
  <rect x="342" y="478" width="20" height="34" rx="8"/><rect x="394" y="470" width="20" height="34" rx="8"/><rect x="446" y="462" width="20" height="34" rx="8"/>
</g>
<path d="M242 676 L530 635 L554 688 L260 726 Z" fill="#b24a33"/>
<path d="M260 728 L554 690" stroke="#20242b" stroke-width="6" stroke-linecap="round"/>
<path d="M686 474 L746 474 L772 666 L624 666 Z" fill="#6b4f3b" stroke="#20242b" stroke-width="6"/>
<path d="M650 510 L724 474 L706 666 L598 666 Z" fill="#2f855a" stroke="#20242b" stroke-width="6"/>
<circle cx="696" cy="422" r="29" fill="#d6a36a" stroke="#20242b" stroke-width="5"/>
<path d="M660 400 Q690 366 730 402 L720 416 L666 416 Z" fill="#7a4f2a" stroke="#20242b" stroke-width="5"/>
<path d="M666 386 L734 386" stroke="#20242b" stroke-width="6" stroke-linecap="round"/>
<path d="M708 456 L758 510 M652 512 L704 466" stroke="#d6a36a" stroke-width="12" stroke-linecap="round"/>
<path d="M708 438 L902 356" stroke="#8b5e20" stroke-width="20" stroke-linecap="round"/>
<path d="M708 438 L902 356" stroke="#20242b" stroke-width="6" stroke-linecap="round"/>
<circle cx="896" cy="352" r="15" fill="#f2b441" stroke="#20242b" stroke-width="4"/>
<circle cx="704" cy="432" r="7" fill="#20242b"/>
<path d="M668 666 L642 724 M722 666 L754 724" stroke="#20242b" stroke-width="9" stroke-linecap="round"/>
<circle cx="170" cy="692" r="34" fill="#d9a441" stroke="#8b5e20" stroke-width="7"/>
<circle cx="170" cy="692" r="14" fill="#eef5ec"/>
</svg>