<svg xmlns="http://www.w3.org/2000/svg" viewBox="0 0 1200 750" role="img" aria-labelledby="title desc">
  <title id="title">GREER icon cover</title>
  <desc id="desc">SLOWINGTON · RV LOOP</desc>
  <g transform="scale(4,4.16667)">

    <rect width="300" height="180" fill="#CDEBF7"/>
    <circle cx="38" cy="60" r="16" fill="#F9B233"/>
    <path d="M0,120 Q75,98 150,112 Q225,124 300,104 L300,180 L0,180 Z" fill="#92C952"/>
    <path d="M0,142 Q85,124 170,140 Q240,152 300,134 L300,180 L0,180 Z" fill="#6BB13A"/>
    <g>
      <path d="M37,153 Q40,131 44,109 L50,110 Q47,132 45,153 Z" fill="#8C6A4F"/>
      <circle cx="47" cy="108" r="4" fill="#74553E"/>
      <g fill="#2F8F46"><path d="M47,108 C58,103 68,105 74,112 C66,109 56,109 47,110 Z" transform="rotate(-78 47 108)"/><path d="M47,108 C58,103 68,105 74,112 C66,109 56,109 47,110 Z" transform="rotate(-46 47 108)"/><path d="M47,108 C58,103 68,105 74,112 C66,109 56,109 47,110 Z" transform="rotate(-15 47 108)"/><path d="M47,108 C58,103 68,105 74,112 C66,109 56,109 47,110 Z" transform="rotate(16 47 108)"/><path d="M47,108 C58,103 68,105 74,112 C66,109 56,109 47,110 Z" transform="rotate(46 47 108)"/><path d="M47,108 C58,103 68,105 74,112 C66,109 56,109 47,110 Z" transform="rotate(74 47 108)"/></g>
    </g>
    <g>
      <rect x="222" y="140" width="58" height="26" rx="6" fill="#F5EFE0" stroke="#D9D2BE"/>
      <rect x="222" y="151" width="58" height="6" fill="#E07A5F"/>
      <rect x="228" y="144" width="12" height="9" rx="2" fill="#BFE3F0"/>
      <rect x="262" y="145" width="10" height="19" rx="1" fill="#EAE3CF" stroke="#CBC2A8"/>
      <circle cx="236" cy="167" r="5" fill="#37383a"/><circle cx="236" cy="167" r="2" fill="#8d8d8d"/>
      <circle cx="268" cy="167" r="5" fill="#37383a"/><circle cx="268" cy="167" r="2" fill="#8d8d8d"/>
      <line x1="250" y1="140" x2="250" y2="125" stroke="#6b6b6b" stroke-width="1.2"/>
      <rect x="250" y="125" width="15" height="11" fill="#14213D"/>
      <circle cx="255" cy="130.5" r="2.6" fill="#fff"/><circle cx="256.6" cy="130.5" r="2.6" fill="#14213D"/>
    </g>
    <ellipse cx="150" cy="158" rx="66" ry="20" fill="#EFE6CE"/>
    <ellipse cx="150" cy="158" rx="46" ry="11" fill="#6BB13A"/>
    <ellipse cx="150" cy="158" rx="56" ry="15.5" fill="none" stroke="#fff" stroke-width="1" stroke-dasharray="4 4" opacity=".75"/>
    <g>
      <rect x="139" y="130" width="3.4" height="15" rx="1.5" fill="#6E5747"/><rect x="147" y="130" width="3.4" height="15" rx="1.5" fill="#6E5747"/><rect x="159" y="130" width="3.4" height="15" rx="1.5" fill="#6E5747"/><rect x="167" y="130" width="3.4" height="15" rx="1.5" fill="#6E5747"/>
      <path d="M174,123 Q181,128 180,135" stroke="#6E5747" stroke-width="2" fill="none"/>
      <ellipse cx="180" cy="135" rx="2.4" ry="4" fill="#6E5747"/>
      <ellipse cx="152" cy="126" rx="22" ry="11" fill="#9E8470"/>
      <polygon points="135,129 141,124 128,108 122,113" fill="#9E8470"/>
      <polygon points="125,98 131,116 134,114 128,97" fill="#6E5747"/>
      <ellipse cx="122" cy="106" rx="7" ry="9" fill="#9E8470"/>
      <ellipse cx="117" cy="112" rx="4.6" ry="4.4" fill="#C9B6A6"/>
      <circle cx="121" cy="104" r="1.3" fill="#33281f"/>
      <ellipse cx="119" cy="92" rx="2.5" ry="8.5" fill="#9E8470" transform="rotate(-12 119 92)"/><ellipse cx="119" cy="93" rx="1.1" ry="5.5" fill="#6E5747" transform="rotate(-12 119 92)"/>
      <ellipse cx="126" cy="93" rx="2.5" ry="8.5" fill="#9E8470" transform="rotate(10 126 93)"/><ellipse cx="126" cy="94" rx="1.1" ry="5.5" fill="#6E5747" transform="rotate(10 126 93)"/>
    </g>
    </g>
  <text x="70" y="100" font-family="Arial, Helvetica, sans-serif" font-size="78" font-weight="900" fill="#20242b">GREER</text>
  <text x="72" y="146" font-family="Arial, Helvetica, sans-serif" font-size="28" font-weight="800" fill="#0b67c2">SLOWINGTON · RV LOOP</text>
  <rect x="826" y="56" width="324" height="122" rx="26" fill="#ffffff" stroke="#a9bfd0" stroke-width="3"/>
  <text x="988" y="104" text-anchor="middle" font-family="Arial, Helvetica, sans-serif" font-size="34" font-weight="900" fill="#20242b">Run50 #18</text>
  <text x="988" y="158" text-anchor="middle" font-family="Arial, Helvetica, sans-serif" font-size="40" font-weight="900" fill="#0b67c2">S. CAROLINA</text>
</svg>
